<svg xmlns="http://www.w3.org/2000/svg" width="23" height="23" fill="none" viewBox="0 0 23 23">
  <path fill="#428BC1" d="M11.538 22.655c5.335 0 9.66-4.342 9.66-9.698 0-5.357-4.325-9.699-9.66-9.699s-9.66 4.342-9.66 9.699c0 5.356 4.325 9.698 9.66 9.698Z"/>
  <path fill="#fff" d="M11.538 20.508c4.15 0 7.514-3.38 7.514-7.551s-3.364-7.552-7.514-7.552-7.513 3.381-7.513 7.552c0 4.17 3.364 7.551 7.513 7.551Z"/>
  <path fill="#428BC1" d="M3.45 17.748 2.607 23h.728c.46 0 .613-.537.92-1.188.383-.844 1.303-3.029 1.303-3.029L3.45 17.748Zm16.138 0L20.47 23h-.728c-.46 0-.614-.537-.92-1.188-.384-.844-1.304-3.029-1.304-3.029l2.07-1.035ZM4.332 3.143l2.261 2.262-1.188 1.227-2.262-2.3 1.189-1.189Zm14.413 0-2.262 2.262 1.189 1.227 2.261-2.3-1.188-1.189Z"/>
  <path fill="#B0B8B8" d="m1.418 8.28 6.747-6.862A4.626 4.626 0 0 0 4.792 0C2.147 0 0 2.185 0 4.83a4.87 4.87 0 0 0 1.418 3.45Zm13.34-6.823 6.824 6.785A4.778 4.778 0 0 0 23 4.83 4.834 4.834 0 0 0 18.17 0a4.975 4.975 0 0 0-3.412 1.457Z"/>
  <path fill="#ED4C5C" d="m7.13 17.097 3.948-4.025.46.46-3.948 3.986-.46-.421Z"/>
  <path fill="#428BC1" d="M11.538 14.375a1.418 1.418 0 1 0 0-2.837 1.418 1.418 0 0 0 0 2.837Z"/>
  <path fill="#428BC1" d="M10.81 7.552h1.418v5.75H10.81v-5.75Zm1.418 4.676h2.875v1.419h-2.875v-1.419Z"/>
</svg>
