<svg xmlns="http://www.w3.org/2000/svg" width="37" height="35" fill="none" viewBox="0 0 37 35">
  <path fill="#553788" d="M14.412 30.882c0 2.274-.815 4.118-3.089 4.118H4.118C0 35 0 20.588 4.118 20.588h7.205c2.274 0 3.089 1.844 3.089 4.118v6.176Z"/>
  <path fill="#9266CC" d="M33.97 32.941h-1.029V22.647h1.03a1.029 1.029 0 1 0 0-2.059H9.265c-4.118 0-4.118 14.412 0 14.412H33.97a1.028 1.028 0 1 0 0-2.059Z"/>
  <path fill="#CCD6DD" d="M34.148 32.941H10.294c-2.059 0-2.059-10.294 0-10.294h23.854c1.136 0 1.136 10.294 0 10.294Z"/>
  <path fill="#99AAB5" d="M10.809 24.706h24.037c-.14-1.21-.371-2.059-.698-2.059H10.294c-1.7 0-1.995 7.008-.888 9.458-.404-3.046.064-7.4 1.403-7.4Z"/>
  <path fill="#269" d="M11.323 7.206a4.118 4.118 0 0 1-4.117 4.117H3.088C-1.029 11.323-1.029 0 3.088 0h4.118a4.118 4.118 0 0 1 4.117 4.118v3.088Z"/>
  <path fill="#55ACEE" d="M30.882 9.265h-1.029V2.059h1.03a1.028 1.028 0 1 0 0-2.059H6.175c-4.117 0-4.117 11.323 0 11.323h24.706a1.028 1.028 0 1 0 0-2.058Z"/>
  <path fill="#CCD6DD" d="M31.06 9.265H7.206c-2.059 0-2.059-7.206 0-7.206H31.06c1.136 0 1.136 7.206 0 7.206Z"/>
  <path fill="#99AAB5" d="M7.206 4.118h24.628c-.117-1.158-.374-2.06-.775-2.06H7.206c-1.228 0-1.718 2.563-1.48 4.633.16-1.398.65-2.573 1.48-2.573Z"/>
  <path fill="#F4900C" d="M19.559 16.47a4.118 4.118 0 0 1-4.118 4.118H5.147c-4.118 0-4.118-9.265 0-9.265h10.294a4.118 4.118 0 0 1 4.118 4.118v1.03Z"/>
  <path fill="#FFAC33" d="M35 18.53h-1.03v-5.148H35a1.028 1.028 0 1 0 0-2.059H14.412c-4.118 0-4.118 9.265 0 9.265H35a1.028 1.028 0 1 0 0-2.059Z"/>
  <path fill="#CCD6DD" d="M35.177 18.53H15.441c-2.059 0-2.059-5.148 0-5.148h19.736c1.137 0 1.137 5.147 0 5.147Z"/>
  <path fill="#99AAB5" d="M15.441 15.441h20.572c-.067-1.093-.344-2.059-.836-2.059H15.441c-1.311 0-1.784 2.087-1.424 3.603.204-.863.677-1.544 1.424-1.544Z"/>
</svg>
