<svg xmlns="http://www.w3.org/2000/svg" width="23" height="23" fill="none" viewBox="0 0 23 23">
  <path fill="#256382" d="m19.377 14.012 2.576 2.683-11.33 5.682s-1.482.741-2.187-.424c-2.824-4.588 10.941-7.94 10.941-7.94Z"/>
  <path fill="#D9E3E8" d="M10.306 19.024s-2.153.812-1.765 2.33c.424 1.588 2.153.635 2.153.635l10.765-5.294s-.6-1.695.494-2.824l-11.647 5.153Z"/>
  <path fill="#42ADE2" d="m12.142 3.141 10.306 10.624-12.177 5.047-7.8-12.918 9.67-2.753Z"/>
  <path fill="#94989B" d="m21.424 15.036-7.2 3.106 7.059-3.424.141.318Zm-.106.917-7.659 3.353 7.518-3.67.141.317Zm.07.53-9.776 4.482 9.636-4.8.14.318Z"/>
  <path fill="#428BC1" d="M8.4 21.918c-1.2-2.647 1.87-3.106 1.87-3.106L2.47 5.894S.707 5.86.707 7.8c0 .812.353 1.412.353 1.412L8.4 21.918Z"/>
  <path fill="#547725" d="M3.07 11.365.495 14.047l11.33 5.683s1.482.741 2.188-.424c2.824-4.588-10.941-7.941-10.941-7.941Z"/>
  <path fill="#D9E3E8" d="M12.106 16.377s2.153.812 1.765 2.33c-.424 1.588-2.118.635-2.118.635L.988 14.047s.6-1.694-.494-2.823l11.612 5.153Z"/>
  <path fill="#83BF4F" d="M10.306.494 0 11.118l12.177 5.047 7.8-12.918-9.67-2.753Z"/>
  <path fill="#94989B" d="m1.13 12.07 7.058 3.425-7.2-3.106.141-.318Zm.14.919 7.483 3.67-7.659-3.353.177-.317Zm-.07.529 9.6 4.8-9.776-4.482.176-.318Z"/>
  <path fill="#699635" d="M14.047 19.271c1.2-2.647-1.87-3.106-1.87-3.106l7.8-12.918s1.765-.035 1.765 1.906c0 .812-.353 1.412-.353 1.412L14.047 19.27Z"/>
  <path fill="#962C2C" d="m20.012 9.177 2.153 2.259L12.6 16.2s-1.27.6-1.87-.352C8.4 12 20.012 9.177 20.012 9.177Z"/>
  <path fill="#D9E3E8" d="M12.353 13.412s-1.835.67-1.482 1.977c.353 1.34 1.8.53 1.8.53l9.07-4.483s-.493-1.412.424-2.365l-9.812 4.341Z"/>
  <path fill="#ED4C5C" d="m13.906 0 8.683 8.965-10.271 4.27-6.6-10.906L13.906 0Z"/>
  <path fill="#fff" d="m14.153 2.047 1.694 1.87L9.6 6.284l-1.482-2.4 6.035-1.836Z"/>
  <path fill="#94989B" d="m21.742 10.06-6.071 2.576 5.93-2.895.14.318Zm-.07.776-6.495 2.788 6.353-3.106.141.318Zm.07.423-8.26 3.777 8.083-4.095.177.318Z"/>
  <path fill="#C94747" d="M10.765 15.848c-.988-2.224 1.588-2.612 1.588-2.612L5.718 2.329S4.2 2.294 4.2 3.918c0 .67.282 1.2.282 1.2l6.283 10.73Z"/>
</svg>
