<svg xmlns="http://www.w3.org/2000/svg" width="36" height="35" fill="none" viewBox="0 0 36 35">
  <path fill="url(#a)" d="M17.513 33.758C9.089 33.758 0 28.473 0 16.878 0 5.285 9.089 0 17.513 0c4.68 0 8.998 1.54 12.198 4.348 3.473 3.08 5.315 7.428 5.315 12.53 0 5.104-1.842 9.421-5.315 12.501-3.2 2.808-7.548 4.379-12.198 4.379Z"/>
  <path fill="#EB8F00" d="M31.973 6.845c1.61 2.597 2.449 5.689 2.449 9.128 0 5.103-1.842 9.42-5.314 12.5-3.201 2.809-7.549 4.379-12.199 4.379-5.453 0-11.172-2.22-14.548-6.927 3.25 5.332 9.36 7.833 15.152 7.833 4.65 0 8.998-1.57 12.199-4.379 3.472-3.08 5.314-7.397 5.314-12.5 0-3.847-1.048-7.265-3.053-10.034Z"/>
  <path fill="#422B0D" d="M20.744 5.284c.268-.238.55-.459.845-.664.302-.212.634-.363.936-.544a5.817 5.817 0 0 1 2.265-.634c.22-.003.444.006.664.03.226.022.45.073.664.151.06.03.121.03.151.06l.151.091.302.151c.187.133.369.272.544.423.305.305.55.661.724 1.057.085.175.154.356.212.543.06.182.09.363.12.483l.03.091a.68.68 0 0 1-.543.785.69.69 0 0 1-.724-.332c-.091-.181-.182-.332-.242-.453-.06-.12-.151-.242-.211-.362a3.019 3.019 0 0 0-.514-.544.69.69 0 0 0-.15-.09.397.397 0 0 1-.121-.091c-.06-.03-.091-.03-.151-.06l-.06-.03h-.091a1.594 1.594 0 0 0-.665-.06 5.074 5.074 0 0 0-1.63.392c-.272.12-.574.241-.846.362a7.83 7.83 0 0 1-.875.392l-.06.03a.654.654 0 0 1-.864-.335c-.003-.009-.01-.018-.012-.027a.677.677 0 0 1 .15-.815Zm-8.666 4.227a2.267 2.267 0 0 1-.604.09c-.19.016-.383.016-.574 0-.39 0-.776-.06-1.147-.18a7.37 7.37 0 0 0-1.721-.242 2.247 2.247 0 0 0-.665.09 1.18 1.18 0 0 0-.483.303c-.356.425-.66.89-.905 1.389a.692.692 0 0 1-.937.271.736.736 0 0 1-.362-.724c.067-.36.157-.713.272-1.057.142-.393.347-.758.604-1.087a2.591 2.591 0 0 1 1.147-.815 4.05 4.05 0 0 1 1.299-.212c.745.043 1.48.206 2.174.483.268.094.54.176.815.242.139.036.28.054.423.06.12 0 .302.03.392.03h.12a.65.65 0 0 1 .635.668v.027a.585.585 0 0 1-.483.664Zm-.483 15.943c.543-.604 1.993-1.298 4.016-1.268 2.687.06 4.136 1.268 4.136 1.268.876.725.483 1.842-.453 1.751-1.51-.18-1.419-.453-4.136-.513a11.85 11.85 0 0 0-2.99.272c-.543.03-.754-.181-.845-.544a1.006 1.006 0 0 1 .272-.966ZM23.16 11.112c1.328 0 2.536 1.117 2.536 2.989 0 1.872-1.208 2.99-2.537 2.99-1.328 0-2.536-1.118-2.536-2.99s1.208-2.99 2.536-2.99Zm-13.619.513c-1.268 0-2.415 1.057-2.415 2.838 0 1.782 1.147 2.839 2.415 2.839 1.269 0 2.416-1.057 2.416-2.839 0-1.781-1.147-2.838-2.416-2.838Z"/>
  <path fill="#404040" d="M30.466 12.954h-1.69v2.717h1.69c.816 0 1.63-.513 1.63-1.298v-.121c0-.815-.814-1.299-1.63-1.299Zm-.15 2.324a1 1 0 0 1-.967-1.026.995.995 0 0 1 1.993.03 1.012 1.012 0 0 1-1.027.996Zm.03 3.986a.17.17 0 0 1-.181-.15v-1.39a.142.142 0 0 1 .132-.15h.048a.142.142 0 0 1 .152.132v1.408a.162.162 0 0 1-.151.15Zm0 2.295a.17.17 0 0 1-.181-.151v-1.389a.142.142 0 0 1 .132-.15h.048a.142.142 0 0 1 .152.132v1.407a.142.142 0 0 1-.133.151h-.018Zm0 2.325a.17.17 0 0 1-.181-.151v-1.389a.142.142 0 0 1 .132-.151h.048a.142.142 0 0 1 .152.133v1.407a.142.142 0 0 1-.133.15h-.018Zm0 2.325a.17.17 0 0 1-.181-.151v-1.389a.142.142 0 0 1 .132-.151h.048a.142.142 0 0 1 .152.133v1.407a.142.142 0 0 1-.133.15h-.018Zm0 2.325a.17.17 0 0 1-.181-.151v-1.389a.142.142 0 0 1 .132-.151h.048a.142.142 0 0 1 .152.133v1.407a.142.142 0 0 1-.133.15h-.018Zm0 2.325a.17.17 0 0 1-.181-.151v-1.389a.142.142 0 0 1 .132-.151h.048a.142.142 0 0 1 .152.133v1.407a.142.142 0 0 1-.133.15h-.018Zm0 2.325a.17.17 0 0 1-.181-.151v-1.389a.142.142 0 0 1 .132-.151h.048a.142.142 0 0 1 .152.133v1.407a.142.142 0 0 1-.133.15h-.018Z"/>
  <path fill="#404040" d="M30.346 16.818a.17.17 0 0 1-.181-.15v-1.39a.142.142 0 0 1 .132-.15h.048a.142.142 0 0 1 .152.132v1.408a.162.162 0 0 1-.151.15Z"/>
  <path stroke="#404040" stroke-miterlimit="10" stroke-width=".526" d="M30.346 18.026a.785.785 0 1 0 0-1.57.785.785 0 0 0 0 1.57Zm0 2.325a.785.785 0 1 0 0-1.57.785.785 0 0 0 0 1.57Zm0 2.295a.785.785 0 1 0 0-1.57.785.785 0 0 0 0 1.57Zm0 2.325a.785.785 0 1 0 0-1.57.785.785 0 0 0 0 1.57Zm0 2.295a.785.785 0 1 0 0-1.57.785.785 0 0 0 0 1.57Zm0 2.324a.785.785 0 1 0 0-1.57.785.785 0 0 0 0 1.57Zm0 2.296a.785.785 0 1 0 0-1.57.785.785 0 0 0 0 1.57Zm0 2.324a.785.785 0 1 0 0-1.57.785.785 0 0 0 0 1.57Z"/>
  <path fill="#CCC" fill-opacity=".5" stroke="#404040" stroke-miterlimit="10" stroke-width="1.84" d="M22.344 20.321a6.22 6.22 0 1 0 0-12.44 6.22 6.22 0 0 0 0 12.44Z"/>
  <path fill="#fff" d="M26.934 13.739a4.45 4.45 0 0 0-1.48-2.93 4.67 4.67 0 0 0-3.02-1.117 4.802 4.802 0 0 0-3.05 1.057 4.187 4.187 0 0 0-1.479 2.899c0 .09-.09.15-.15.12a.138.138 0 0 1-.121-.15 4.184 4.184 0 0 1 .332-1.812 4.806 4.806 0 0 1 1.057-1.54 4.993 4.993 0 0 1 3.442-1.298 4.925 4.925 0 0 1 3.412 1.359c.45.44.809.963 1.057 1.54.235.573.338 1.192.301 1.811a.142.142 0 0 1-.132.151h-.018a.108.108 0 0 1-.142-.051.083.083 0 0 1-.01-.04Z"/>
  <defs>
    <radialGradient id="a" cx="0" cy="0" r="1" gradientTransform="translate(17.513 16.879) scale(17.1988)" gradientUnits="userSpaceOnUse">
      <stop offset=".5" stop-color="#FDE030"/>
      <stop offset=".92" stop-color="#F7C02B"/>
      <stop offset="1" stop-color="#F4A223"/>
    </radialGradient>
  </defs>
</svg>
