<svg xmlns="http://www.w3.org/2000/svg" width="51" height="34" fill="none" viewBox="0 0 51 34">
  <path fill="#596066" d="M9.405 15.506v5.762c0 11.862 31.944 11.862 31.944 0v-5.762H9.405Z"/>
  <path fill="#3E4347" d="M50.84 11.439 25.42 22.878 0 11.438 25.42 0l25.42 11.439Z"/>
  <path fill="#FFCE31" d="M25.335 10.93c-3.898 1.78-12.37 5.593-12.71 5.762-.17.085-.339.255-.339.509v5.761c0 .678.848.678.848 0v-5.338c3.813-1.694 12.032-5.422 12.37-5.592.509-.254.34-1.271-.169-1.101Z"/>
  <path fill="#FFCE31" d="M12.71 24.911c.889 0 1.61-.91 1.61-2.033 0-1.123-.721-2.034-1.61-2.034-.89 0-1.61.91-1.61 2.034 0 1.123.72 2.033 1.61 2.033Z"/>
  <path fill="#FFCE31" d="M12.71 33.893c.847 0 1.61-.424 1.61-1.017v-9.998H11.1v9.998c0 .593.763 1.017 1.61 1.017Z"/>
  <path fill="#594640" d="M13.811 23.132c-.084 0-.084.085-.17.085v10.507c.086 0 .086-.085.17-.085V23.132Zm-.678.254h-.169v10.507h.17V23.386Zm-.677 0h-.17v10.507h.17V23.386Zm-.678-.17c-.085 0-.085-.084-.17-.084v10.591c.085 0 .085.085.17.085V23.217Z"/>
</svg>
