<svg xmlns="http://www.w3.org/2000/svg" width="25" height="25" fill="none" viewBox="0 0 25 25">
  <path fill="#FFDD67" d="M12.293 24.586c6.79 0 12.293-5.504 12.293-12.293C24.586 5.503 19.082 0 12.293 0 5.503 0 0 5.504 0 12.293c0 6.79 5.504 12.293 12.293 12.293Z"/>
  <path fill="#fff" d="M6.146 15.98a4.507 4.507 0 1 0 0-9.014 4.507 4.507 0 0 0 0 9.015Zm12.294 0a4.507 4.507 0 1 0 0-9.014 4.507 4.507 0 0 0 0 9.015Z"/>
  <path fill="#494949" d="M13.932 10.244c-.738-.533-2.54-.533-3.278 0-.45-.41-.369-.86-.82-1.27 1.27-.943 3.442-1.107 4.918 0-.451.41-.37.86-.82 1.27Z"/>
  <path fill="#494949" d="M18.44 6.146a5.316 5.316 0 0 0-5.328 5.327A5.316 5.316 0 0 0 18.44 16.8a5.316 5.316 0 0 0 5.327-5.327 5.316 5.316 0 0 0-5.327-5.327Zm0 9.425a4.11 4.11 0 0 1-4.098-4.098 4.11 4.11 0 0 1 4.097-4.097 4.11 4.11 0 0 1 4.098 4.097 4.11 4.11 0 0 1-4.098 4.098ZM6.146 6.146A5.316 5.316 0 0 0 .82 11.473 5.316 5.316 0 0 0 6.147 16.8a5.316 5.316 0 0 0 5.326-5.327 5.316 5.316 0 0 0-5.326-5.327Zm0 9.425a4.11 4.11 0 0 1-4.098-4.098 4.11 4.11 0 0 1 4.098-4.097 4.11 4.11 0 0 1 4.097 4.097 4.11 4.11 0 0 1-4.097 4.098Z"/>
  <path fill="#664E27" d="M7.376 13.727c.905 0 1.639-.917 1.639-2.049 0-1.131-.734-2.049-1.64-2.049-.904 0-1.638.918-1.638 2.05 0 1.13.734 2.048 1.639 2.048Zm9.834 0c.905 0 1.64-.917 1.64-2.049 0-1.131-.735-2.049-1.64-2.049-.905 0-1.639.918-1.639 2.05 0 1.13.734 2.048 1.64 2.048Zm-7.089 6.474a8.46 8.46 0 0 0 6.925-1.229c.492-.369-.45-1.639-.942-1.311-1.311.942-3.442 1.557-5.614.983-.533-.123-.983 1.393-.369 1.557Z"/>
  <path fill="#917524" d="M20.98 5.614a5.778 5.778 0 0 0-4.794-1.27c-.246.04-.451-.82-.164-.902 1.967-.369 4.016.205 5.532 1.475.245.205-.41.86-.574.697ZM8.4 4.262c-1.72-.287-3.483.163-4.794 1.27-.164.164-.82-.492-.574-.697A6.607 6.607 0 0 1 8.564 3.36c.287.082.082.943-.164.902Z"/>
</svg>
