<svg xmlns="http://www.w3.org/2000/svg" width="30" height="37" fill="none" viewBox="0 0 30 37">
  <path fill="url(#a)" d="M29.483 19.271c.173-1.033.888-4.713.236-8.326-.415-2.3-1.852-5.304-3.455-6.823C23.169 1.192 18.859 0 14.894 0 10.93 0 6.836 1.191 3.74 4.122 2.137 5.641.7 8.648.285 10.945c-.652 3.613.064 7.293.236 8.326.234 1.41-.385 2.968-.506 4.371-.13 1.528.591 2.713 1.882 3.553 1.076.7 2.331 1.07 3.495 1.612 1.385.646.127 2.977.64 4.153.257.594.821 1.003 1.403 1.29.74.37 1.591.601 2.395.398-.122.03.23.736.694 1.024.424.261.949.528 1.437.634.97.212 1.93-.145 2.53-.455.328-.17.71-.17 1.034 0 .6.31 1.561.667 2.53.455.731-.16 1.383-.594 1.85-1.16a1.07 1.07 0 0 1 .9-.389c1.018.067 2.576-.349 3.252-1.885.38-.855-.003-1.861.249-2.755.427-1.516 1.919-1.892 3.119-2.598 1.591-.934 2.53-1.98 2.573-3.452.043-1.564-.715-3.586-.515-4.796Z"/>
  <path fill="#424242" d="M11.328 19.212c.595-2.222-.56-4.462-2.58-5.003-2.019-.54-4.138.822-4.734 3.043-.595 2.222.56 4.462 2.58 5.003 2.019.54 4.139-.822 4.734-3.043Zm12.082 3.042c2.019-.541 3.174-2.78 2.578-5.002-.595-2.222-2.715-3.584-4.734-3.043-2.02.54-3.174 2.78-2.58 5.002.596 2.222 2.716 3.584 4.735 3.043ZM12.567 25.07c0-1.343 1.088-4.671 2.434-4.671 1.345 0 2.434 3.325 2.434 4.67 0 2.732-2.434.87-2.434.87s-2.434 2.02-2.434-.87Z"/>
  <path fill="#8ABFD1" d="M8.52 34.684c-.364-.07-.71-.181-1.018-.409a3.54 3.54 0 0 0 .751-.242c.588-.294.573-.767.704-1.35.112-.508.22-1.018.351-1.524.088-.34.312-.664.661-.615.437.06.479.37.406.84-.07.436-.597 3.313-.597 3.316-.024.13-.9.042-.985.03a4.31 4.31 0 0 1-.273-.046Zm13.158 0c.364-.07.71-.181 1.018-.409a3.571 3.571 0 0 1-.751-.242c-.588-.294-.573-.767-.703-1.35-.113-.508-.222-1.018-.352-1.524-.088-.34-.312-.664-.66-.615-.437.06-.48.37-.407.84.07.436.597 3.313.597 3.316.024.13.9.042.985.03.091-.012.182-.027.273-.046Zm-8.054 1.522s.689-.928.713-1.561c.045-1.13.109-2.658.109-3.543 0-.352.212-.622.567-.622.351 0 .548.237.548.588 0 .015.082 2.07.082 3.501 0 .66.74 1.634.74 1.634-.303-.137-.834-.4-1.38-.376-.69.033-1.379.379-1.379.379Z"/>
  <defs>
    <radialGradient id="a" cx="0" cy="0" r="1" gradientTransform="matrix(19.6823 0 0 21.3337 14.963 21.497)" gradientUnits="userSpaceOnUse">
      <stop offset=".396" stop-color="#E1E7EA"/>
      <stop offset=".993" stop-color="#D6E1E6"/>
    </radialGradient>
  </defs>
</svg>
