<svg xmlns="http://www.w3.org/2000/svg" width="46" height="40" fill="none" viewBox="0 0 46 40">
  <path fill="#68E1FD" d="M3.554 31.144S-.771 29 .121 23.464C1.014 17.928 9.768 13.1 13.205 9.48 16.64 5.86 20.202-.364 29.409.017c9.207.38 9.083 6.552 13.401 8.802 4.319 2.25.254 10.066.636 11.938.38 1.871 5.255 7.527-.612 11.433-5.867 3.906-39.28-1.046-39.28-1.046Z" opacity=".18"/>
  <path fill="#68E1FD" d="M.121 36.612v1.64s.209 1.028 2.123.971c1.913-.056 42.371 0 42.371 0s1.035-.169 1.242-1.012v-1.599H.121Z"/>
  <path fill="url(#a)" d="M.121 36.612v1.64s.209 1.028 2.123.971c1.913-.056 42.371 0 42.371 0s1.035-.169 1.242-1.012v-1.599H.121Z"/>
  <path fill="#68E1FD" d="M40.044 28.424H5.364c-.821 0-1.487-.666-1.487-1.423V5.785c0-.886.666-1.552 1.488-1.552h34.68a1.488 1.488 0 0 1 1.484 1.488v21.216a1.487 1.487 0 0 1-1.485 1.487Z"/>
  <path fill="#68E1FD" d="M39.258 5.108H6.136c-.764 0-1.384.62-1.384 1.384v19.231c0 .765.62 1.385 1.384 1.385h33.121c.765 0 1.385-.62 1.385-1.385V6.493c0-.765-.62-1.385-1.385-1.385Z"/>
  <path fill="url(#b)" d="M39.396 5.108H6.275c-.765 0-1.385.62-1.385 1.384v19.231c0 .765.62 1.385 1.385 1.385h33.121c.765 0 1.385-.62 1.385-1.385V6.493c0-.765-.62-1.385-1.385-1.385Z"/>
  <path fill="url(#c)" d="M19.227 14.564s-.438-.545-.795-.095c-.357.45.174 1.518 1.016 1.537.842.02-.221-1.442-.221-1.442Z"/>
  <path fill="url(#d)" d="M7.056 6.882h9.848v7.794H7.056V6.882Z"/>
  <path fill="url(#e)" d="M13.607 9.352a.279.279 0 0 1-.006.135.524.524 0 0 1-.104.219.29.29 0 0 1-.214.105.037.037 0 0 1-.03-.011.039.039 0 0 1-.007-.022c-.005-.122-.011-.307.066-.41.07-.087.253-.17.295-.016Z"/>
  <path fill="url(#f)" d="M10.49 9.345a.197.197 0 0 0-.097.175.31.31 0 0 0 .066.203c.04.046.088.085.14.116a.423.423 0 0 0 .216.085.07.07 0 0 0 .059-.022.074.074 0 0 0 .012-.046c.008-.189-.09-.66-.396-.511Z"/>
  <path fill="url(#g)" d="M10.77 9.676a.135.135 0 0 1-.132-.056c-.049-.07-.066-.154-.131-.117-.066.038-.023.18.033.258.055.078.24.137.271.084.032-.053-.042-.17-.042-.17Z"/>
  <path fill="url(#h)" d="M13.253 9.59a.131.131 0 0 0 .128-.055c.05-.07.066-.155.131-.117.066.039.024.18-.033.258-.056.078-.239.138-.27.084-.032-.054.044-.17.044-.17Z"/>
  <path stroke="#6C62FF" stroke-miterlimit="10" stroke-width=".209" d="M13.5 27.108h.119c-.07.134-.12 0-.12 0Z"/>
  <path fill="url(#i)" d="M25.232 19.49s-.127.657.641 1.216c-.186.27-.689.788-1.545 1.026-.38.103-.775.143-1.168.117-.672-.038-1.264-.325-1.737-.663l-.074-.055a5.523 5.523 0 0 1-.984-.955c.565-.358 1.039-.833.542-1.253a.05.05 0 0 0-.01-.007.137.137 0 0 0-.015-.013l-.01-.008c-1.89-1.461-1.74-6.497-1.74-6.497 1.916-7.284 6.632-3.997 7.65-3.609 1.016.389 1.742 2.796 1.284 5.461-.534 3.085-2.834 5.24-2.834 5.24Z"/>
  <path fill="#68E1FD" d="M33.637 27.108H13.622c.066-.125.146-.483.218-1.404.32-4.107 5.41-4.967 5.41-4.967.252-.101.5-.216.74-.343l.784.919c.22.258.8.454.8.454 2.995 1.462 4.303-.28 4.636-.857 1.128.583 3.987 1.48 5.559 2.668 1.726 1.303 1.868 3.53 1.868 3.53Z"/>
  <path fill="#68E1FD" d="m32.983 27.108.72-6.707h3.12l.296 6.767-4.136-.06Z"/>
  <path fill="url(#j)" d="m33.17 25.377-.187 1.73H13.62c.065-.124.145-.482.217-1.403.325-4.107 5.413-4.967 5.413-4.967.253-.101.5-.216.741-.343l.784.919c.22.258.8.454.8.454 2.995 1.462 4.303-.28 4.636-.857 1.128.583 3.987 1.48 5.559 2.668a4.576 4.576 0 0 1 1.4 1.8Z"/>
  <path fill="url(#k)" d="m37.119 27.168-4.136-.06.186-1.73.535-4.977h3.12l.295 6.767Z"/>
  <path fill="url(#l)" d="M38.821 15.238c-.05.141-.346.62-.613 1.09-.232.407-.441.807-.45.973-.02.356-.492 1.92-1.013 2.396-.322.294-.175.704-.175.704l-.667.021-2.034.066s.165-.313-.073-.44c-.237-.126-2.362-2.715-2.362-2.715s.154-.759 1.068-.252c.914.506 1.066.914 1.293.871.227-.043.247-3.532.247-3.532s.048-1.596.472-1.888c.423-.293.348 1.057.348 1.057l.28 1.831s.685-2.907.892-3.039c.207-.13.614-.02.513.54-.024.132-.161 1.579-.161 1.579l-.113.949s1.075-2.33 1.271-2.406c.196-.076.506.018.412.412-.094.394-.566 2.42-.58 2.485.039-.047.96-1.155 1.18-1.265.221-.11.359.3.265.563Z"/>
  <path fill="#fff" d="M26.3 20.737s-.363 1.647-2.278 1.746c-2.983.155-4.153-2.235-4.153-2.235l.355-.255s.047.07.139.184c.364.453 1.414 1.594 2.797 1.676 1.582.09 2.453-.768 2.713-1.143.021-.03.041-.062.06-.095l.367.122Z"/>
  <path fill="#68E1FD" d="M8.252 14.676s-.127-2.073 1.604-2.954c1.73-.88 5.82-.124 5.61 2.954H8.252Z"/>
  <path fill="url(#m)" d="M11.267 10.268v.61a.586.586 0 0 1-.489.579l-.429.071s.618 1.347 1.913.99c1.294-.356 1.35-.715 1.35-.715l-.307-.107a.657.657 0 0 1-.44-.617l-.004-.811h-1.594Z"/>
  <path fill="url(#n)" d="M10.687 8.955s-.044.88.48 1.597c.568.776 1.356.918 1.882 0 .152-.263.433-1.672.32-2.16-.114-.487-1.99-1.876-2.682.563Z"/>
  <path fill="#3F3D56" d="M10.438 8.26a.448.448 0 0 0 .106-.089.336.336 0 0 0 .036-.168c.03-.394.378-.695.744-.843.656-.267 1.47-.154 1.996.328.19.173.356.394.602.468a.3.3 0 0 1 .14.059c.079.077.02.215-.063.29a.161.161 0 0 0-.047.058c-.024.065.062.12.131.143a.805.805 0 0 1-.232.212c.046.004.061.07.037.11a.327.327 0 0 1-.105.087c-.115.082-.173.219-.246.339-.074.12-.19.237-.329.228.085-.32.049-.66-.101-.956-.64.173-1.313-.033-1.954-.209a.197.197 0 0 0-.148 0c-.082.048-.055.17-.018.257-.08 0-.12.098-.137.177-.024.119-.037.24-.04.36 0 .073.052.312.018.363-.065.1-.161-.059-.219-.136-.185-.248-.489-.821-.17-1.078Z"/>
  <path fill="#68E1FD" d="M5.365 28.424.275 36.07a.897.897 0 0 0 .747 1.394H44.96a.898.898 0 0 0 .722-1.43l-5.637-7.613-34.681.002Z"/>
  <path fill="url(#o)" d="M5.365 28.424.275 36.07a.897.897 0 0 0 .747 1.394H44.96a.898.898 0 0 0 .722-1.43l-5.637-7.613-34.681.002Z"/>
  <path fill="url(#p)" d="M39.142 29.796H6.078l.301-.603h32.312l.451.603Z"/>
  <path fill="url(#q)" d="M39.802 30.678H5.637l.44-.882h33.065l.66.882Z"/>
  <path fill="url(#r)" d="M40.5 31.61H5.17l.466-.932h34.165l.698.932Z"/>
  <path fill="url(#s)" d="M41.128 32.449H4.752l.419-.839H40.5l.628.839Z"/>
  <path fill="url(#t)" d="M16.974 33.03h11.981l1.689 2.77H16.13l.844-2.77Z"/>
  <path fill="#3F3D56" d="M18.785 7.968c.006.117.034.236.007.35a.845.845 0 0 1-.165.285c-.713.962-.747 2.25-.752 3.446 0 .302 0 .61.087.898.085.279.25.525.413.768.078.117.712.834.853.849.19.02-.367-3.14 3.407-3.446.378-.03.752.016 1.13.029.224.007.448-.021.672-.013.377.016.74.137 1.098.257.646.217 1.334.465 1.733 1.017l.361-.197.054 1.308.014.313.08 1.903.83-1.251c.517-.78 1.054-1.744.673-2.599-.18-.403-.543-.707-.697-1.121-.214-.577.023-1.223-.046-1.834-.13-1.192-1.394-1.962-2.586-2.09-.266-.027-.535-.033-.798-.083a5.568 5.568 0 0 1-.764-.225c-.514-.175-1.106-.328-1.575-.053-.183.107-.328.273-.525.36-.34.153-.731.035-1.102-.005-.73-.075-2.454.084-2.402 1.134Z"/>
  <path fill="url(#u)" d="M27.718 14.948s.438-.545.794-.095c.357.45-.174 1.519-1.015 1.538-.841.019.221-1.442.221-1.442Z"/>
  <path fill="url(#v)" d="M24.328 21.732s-1.27.65-2.905-.546l-.074-.054a6.261 6.261 0 0 1-.984-.956c.565-.358 1.039-.833.542-1.253.245.197 1.732 1.34 2.723 1.07 1.07-.292.706 1.699.698 1.739Z"/>
  <path fill="url(#w)" d="M38.208 16.329c-.232.407-.441.807-.45.973-.02.355-.492 1.92-1.013 2.396-.322.294-.175.703-.175.703l-.667.022-.066-.007s.244-.977-.374-1.408c-.62-.431-1.349-.9-1.257-1.425.093-.525.583-1.688 1.838-1.05a1.935 1.935 0 0 0 2.164-.204Z"/>
  <path fill="#fff" d="M36.203 8.348a.635.635 0 1 0 0-1.27.635.635 0 0 0 0 1.27Z"/>
  <defs>
    <linearGradient id="a" x1="22.869" x2="23.604" y1="34.882" y2="50.297" gradientUnits="userSpaceOnUse">
      <stop stop-opacity="0"/>
      <stop offset=".97"/>
    </linearGradient>
    <linearGradient id="b" x1="22.558" x2="23.162" y1="-1.305" y2="36.56" gradientUnits="userSpaceOnUse">
      <stop stop-color="#fff"/>
      <stop offset="1" stop-color="#fff" stop-opacity="0"/>
    </linearGradient>
    <linearGradient id="c" x1="19.331" x2="17.37" y1="15.09" y2="15.643" gradientUnits="userSpaceOnUse">
      <stop stop-color="#ECC4D7"/>
      <stop offset=".42" stop-color="#EFD4D1"/>
      <stop offset="1" stop-color="#F2EAC9"/>
    </linearGradient>
    <linearGradient id="d" x1="12.278" x2="11.516" y1="4.763" y2="20.134" gradientUnits="userSpaceOnUse">
      <stop stop-color="#fff"/>
      <stop offset="1" stop-color="#fff" stop-opacity="0"/>
    </linearGradient>
    <linearGradient id="e" x1="13.245" x2="13.613" y1="9.539" y2="9.539" gradientUnits="userSpaceOnUse">
      <stop stop-color="#ECC4D7"/>
      <stop offset=".42" stop-color="#EFD4D1"/>
      <stop offset="1" stop-color="#F2EAC9"/>
    </linearGradient>
    <linearGradient id="f" x1="10.393" x2="10.888" y1="9.62" y2="9.62" gradientUnits="userSpaceOnUse">
      <stop stop-color="#ECC4D7"/>
      <stop offset=".42" stop-color="#EFD4D1"/>
      <stop offset="1" stop-color="#F2EAC9"/>
    </linearGradient>
    <linearGradient id="g" x1="10.657" x2="10.601" y1="9.666" y2="9.922" gradientUnits="userSpaceOnUse">
      <stop stop-color="#ECC4D7"/>
      <stop offset=".42" stop-color="#EFD4D1"/>
      <stop offset="1" stop-color="#F2EAC9"/>
    </linearGradient>
    <linearGradient id="h" x1="13.365" x2="13.421" y1="9.581" y2="9.837" gradientUnits="userSpaceOnUse">
      <stop stop-color="#ECC4D7"/>
      <stop offset=".42" stop-color="#EFD4D1"/>
      <stop offset="1" stop-color="#F2EAC9"/>
    </linearGradient>
    <linearGradient id="i" x1="19.126" x2="28.204" y1="14.784" y2="14.784" gradientUnits="userSpaceOnUse">
      <stop stop-color="#ECC4D7"/>
      <stop offset=".42" stop-color="#EFD4D1"/>
      <stop offset="1" stop-color="#F2EAC9"/>
    </linearGradient>
    <linearGradient id="j" x1="23.444" x2="23.263" y1="20.305" y2="41.833" gradientUnits="userSpaceOnUse">
      <stop stop-opacity="0"/>
      <stop offset=".97"/>
    </linearGradient>
    <linearGradient id="k" x1="35.659" x2="33.676" y1="22.326" y2="34.011" gradientUnits="userSpaceOnUse">
      <stop stop-opacity="0"/>
      <stop offset=".97"/>
    </linearGradient>
    <linearGradient id="l" x1="31.436" x2="38.851" y1="16.411" y2="16.411" gradientUnits="userSpaceOnUse">
      <stop stop-color="#ECC4D7"/>
      <stop offset=".42" stop-color="#EFD4D1"/>
      <stop offset="1" stop-color="#F2EAC9"/>
    </linearGradient>
    <linearGradient id="m" x1="11.868" x2="12.112" y1="11.143" y2="12.268" gradientUnits="userSpaceOnUse">
      <stop stop-color="#ECC4D7"/>
      <stop offset=".42" stop-color="#EFD4D1"/>
      <stop offset="1" stop-color="#F2EAC9"/>
    </linearGradient>
    <linearGradient id="n" x1="11.334" x2="12.59" y1="7.753" y2="10.079" gradientUnits="userSpaceOnUse">
      <stop stop-color="#ECC4D7"/>
      <stop offset=".42" stop-color="#EFD4D1"/>
      <stop offset="1" stop-color="#F2EAC9"/>
    </linearGradient>
    <linearGradient id="o" x1="28.365" x2="22.502" y1="18.696" y2="38.194" gradientUnits="userSpaceOnUse">
      <stop stop-color="#fff"/>
      <stop offset=".89" stop-color="#fff" stop-opacity="0"/>
    </linearGradient>
    <linearGradient id="p" x1="22.624" x2="22.562" y1="26.238" y2="41.775" gradientUnits="userSpaceOnUse">
      <stop stop-opacity="0"/>
      <stop offset=".97"/>
    </linearGradient>
    <linearGradient id="q" x1="22.966" x2="22.599" y1="19.385" y2="36.208" gradientUnits="userSpaceOnUse">
      <stop stop-color="#fff"/>
      <stop offset=".6" stop-color="#fff" stop-opacity=".48"/>
      <stop offset=".87" stop-color="#fff" stop-opacity=".13"/>
      <stop offset="1" stop-color="#fff" stop-opacity="0"/>
    </linearGradient>
    <linearGradient id="r" x1="22.856" x2="22.795" y1="26.238" y2="41.776" gradientUnits="userSpaceOnUse">
      <stop stop-opacity="0"/>
      <stop offset=".97"/>
    </linearGradient>
    <linearGradient id="s" x1="23.209" x2="22.841" y1="20.118" y2="36.941" gradientUnits="userSpaceOnUse">
      <stop stop-color="#fff"/>
      <stop offset="1" stop-color="#fff" stop-opacity="0"/>
    </linearGradient>
    <linearGradient id="t" x1="23.563" x2="22.89" y1="29.909" y2="52.42" gradientUnits="userSpaceOnUse">
      <stop stop-opacity="0"/>
      <stop offset=".97"/>
    </linearGradient>
    <linearGradient id="u" x1="27.615" x2="29.575" y1="15.474" y2="16.027" gradientUnits="userSpaceOnUse">
      <stop stop-color="#ECC4D7"/>
      <stop offset=".42" stop-color="#EFD4D1"/>
      <stop offset="1" stop-color="#F2EAC9"/>
    </linearGradient>
    <linearGradient id="v" x1="22.402" x2="20.882" y1="20.595" y2="30.471" gradientUnits="userSpaceOnUse">
      <stop stop-color="#ECC4D7"/>
      <stop offset=".42" stop-color="#EFD4D1"/>
      <stop offset="1" stop-color="#F2EAC9"/>
    </linearGradient>
    <linearGradient id="w" x1="35.457" x2="39.827" y1="16.127" y2="22.392" gradientUnits="userSpaceOnUse">
      <stop stop-color="#ECC4D7"/>
      <stop offset=".42" stop-color="#EFD4D1"/>
      <stop offset="1" stop-color="#F2EAC9"/>
    </linearGradient>
  </defs>
</svg>
