<svg xmlns="http://www.w3.org/2000/svg" width="42" height="43" fill="none" viewBox="0 0 42 43">
  <path fill="#D8D8D8" fill-rule="evenodd" d="M18.466 25.305h4.104v7.524h-4.104v-7.524Z" clip-rule="evenodd"/>
  <path stroke="#979797" stroke-width="3.419" d="M15.73 33.513h9.575v.683H15.73v-.683Z" clip-rule="evenodd"/>
  <path fill="#868686" fill-rule="evenodd" d="M0 2.049C0 .917.915 0 2.049 0h36.938a2.05 2.05 0 0 1 2.049 2.049v22.576a2.047 2.047 0 0 1-2.05 2.048H2.05A2.05 2.05 0 0 1 0 24.625V2.049Z" clip-rule="evenodd"/>
  <path fill="#22BA8E" fill-rule="evenodd" d="M2.052 2.052h36.932v22.57H2.052V2.051Z" clip-rule="evenodd"/>
  <path fill="#fff" fill-rule="evenodd" d="M6.382 15.394c-.043.208-.191.43-.443.665-.038.06-.189.14-.451.238-.301.114-.561.164-.78.147-.41-.027-.733-.262-.968-.705-.214-.41-.32-.914-.32-1.51 0-.646.12-1.212.36-1.7.269-.536.627-.837 1.076-.902a2.04 2.04 0 0 1 .254-.017c.651 0 1.01.4 1.075 1.199.033.366-.112.766-.435 1.198a2.77 2.77 0 0 1-1.346 1.001c.06.219.107.361.14.427.077.137.18.205.312.205.126 0 .26-.05.402-.148a.788.788 0 0 0 .246-.238c.022-.01.044-.072.066-.184a.33.33 0 0 1 .172-.242.254.254 0 0 1 .115-.025c.131 0 .259.064.382.193.123.128.17.261.143.398Zm-1.288-2.89c-.219 0-.397.157-.534.469-.18.416-.254.826-.221 1.23.257-.081.495-.273.714-.574.219-.3.328-.569.328-.804 0-.213-.096-.32-.287-.32Zm4.17 1.29a.229.229 0 0 1-.157.057 1.21 1.21 0 0 1-.189-.033.477.477 0 0 0-.23-.008l-.886.213a1.548 1.548 0 0 0-.254.099.635.635 0 0 1-.23.057c-.137 0-.257-.063-.361-.189a.612.612 0 0 1-.156-.393.42.42 0 0 1 .098-.28c.022-.021.107-.032.255-.032.18 0 .309-.011.386-.033l.935-.246c.246-.066.397-.099.452-.099a.36.36 0 0 1 .188.05c.17.098.255.278.255.541 0 .137-.036.235-.107.296Zm1.985 2.503c-.11.208-.312.311-.607.311-.274 0-.465-.093-.575-.279a.345.345 0 0 1-.049-.18c0-.055.02-.145.058-.27.038-.127.057-.23.057-.313l-.033-5.302v-.443c.017-.07.093-.13.23-.176.137-.047.282-.07.435-.07.224 0 .367.041.427.123.06.082.09.167.09.255 0 .06-.022.16-.066.3a1.21 1.21 0 0 0-.065.34v4.924c0 .082.023.19.07.324.046.134.07.231.07.292 0 .06-.014.114-.042.164Zm3.628-.903c-.044.208-.192.43-.443.665-.039.06-.19.14-.452.238-.3.114-.56.164-.78.147-.41-.027-.733-.262-.968-.705-.213-.41-.32-.914-.32-1.51 0-.646.12-1.212.361-1.7.268-.536.627-.837 1.075-.902a2.04 2.04 0 0 1 .255-.017c.65 0 1.01.4 1.075 1.199.033.366-.112.766-.435 1.198-.35.476-.799.81-1.346 1.001.06.219.107.361.14.427.076.137.18.205.311.205.126 0 .26-.05.402-.148a.788.788 0 0 0 .247-.238c.021-.01.043-.072.065-.184a.33.33 0 0 1 .173-.242.254.254 0 0 1 .114-.025c.132 0 .259.064.382.193.123.128.171.261.144.398Zm-1.289-2.89c-.219 0-.396.157-.533.469-.18.416-.255.826-.222 1.23.257-.081.495-.273.714-.574.22-.3.329-.569.329-.804 0-.213-.096-.32-.288-.32Zm5.557 3.407c-.083.268-.285.402-.608.402a.52.52 0 0 1-.262-.057c-.088-.06-.148-.18-.181-.361a5.266 5.266 0 0 0-.197-.73c-.016.3-.18.605-.492.914-.312.31-.627.464-.944.464-.4 0-.676-.265-.83-.796a2.089 2.089 0 0 1-.081-.558c0-.51.26-.944.78-1.305.426-.252.856-.5 1.288-.747a1.18 1.18 0 0 0 .033-.27c0-.17-.047-.27-.14-.3a.796.796 0 0 0-.238-.046.383.383 0 0 0-.283.111l-.21.21c-.065.043-.15.144-.254.303-.082.126-.172.194-.27.205a.454.454 0 0 1-.386-.147.551.551 0 0 1-.172-.403c0-.087.021-.167.065-.238.126-.207.315-.388.566-.541.383-.23.862-.345 1.437-.345.366 0 .618.175.755.525.087.236.153.676.197 1.322.049.782.11 1.354.18 1.715a.668.668 0 0 0 .14.27c.082.11.123.206.123.288a.418.418 0 0 1-.017.115Zm-1.429-2.019c-.164.088-.326.178-.488.27-.161.094-.31.217-.447.37-.197.224-.296.416-.296.575 0 .13.05.268.148.41.055.077.115.115.18.115.143 0 .297-.159.464-.476.167-.318.314-.739.44-1.264Zm5.228-1.822c-.021.115-.125.194-.311.238-.22.055-.359.118-.419.189l-1.338 1.543v1.247c0 .12.034.242.103.365.068.123.102.218.102.284 0 .065-.019.14-.057.221-.093.208-.282.312-.566.312a.602.602 0 0 1-.468-.189.439.439 0 0 1-.115-.312c0-.043.005-.114.016-.213.011-.099.017-.178.017-.238v-3.07a.363.363 0 0 0-.066-.18.36.36 0 0 1-.066-.172.26.26 0 0 1 .033-.115c.071-.132.293-.197.665-.197.29 0 .454.068.492.205a.5.5 0 0 1 .025.14c0 .06-.022.106-.066.139-.043.033-.065.066-.065.098l.016.296.706-.747c.082-.093.168-.186.258-.279a.492.492 0 0 1 .317-.156.902.902 0 0 1 .537.123c.172.099.259.227.259.386a.416.416 0 0 1-.009.082Zm4.203 3.66c-.011.12-.09.223-.239.308a.971.971 0 0 1-.492.127c-.268 0-.451-.084-.55-.254.044-1.685-.005-2.539-.148-2.56-.136-.023-.47.732-1 2.264v.493c-.006.197-.06.336-.16.418a.506.506 0 0 1-.325.124c-.197 0-.408-.107-.632-.32-.066-.055-.101-.471-.107-1.248.006.476.009-.408.009-2.65 0-.05-.006-.117-.017-.202a1.615 1.615 0 0 1-.016-.185c0-.104.027-.194.082-.27.065-.099.17-.148.312-.148.147 0 .302.045.463.135.162.09.259.177.292.259.021.054.032.11.032.164a.62.62 0 0 1-.065.23.637.637 0 0 0-.066.246v1.133c.345-.734.605-1.218.78-1.453.312-.405.665-.594 1.059-.566.235.016.402.235.5.656.077.317.118.788.123 1.412v1.477a.95.95 0 0 0 .115.205.312.312 0 0 1 .05.205Zm1.838-5.63c.016.017.024.044.024.082 0 .05-.016.134-.049.255a6.637 6.637 0 0 0-.074.303c-.01.055-.005.175.017.361 0 .115-.034.19-.103.226a.557.557 0 0 1-.258.054c-.148 0-.299-.03-.452-.09-.186-.077-.279-.178-.279-.304 0-.039.017-.092.05-.16a.579.579 0 0 0 .057-.169 1.49 1.49 0 0 0 0-.328c-.011-.137.016-.23.082-.279.087-.066.244-.098.468-.098.246 0 .418.049.517.147Zm.107 2.003c0 .076-.043.195-.128.357-.084.161-.127.294-.127.398v2.413c0 .11.03.264.09.463.06.2.09.338.09.415a.27.27 0 0 1-.13.246.806.806 0 0 1-.444.131c-.208 0-.356-.07-.443-.213-.115-.175-.172-.697-.172-1.567 0-.208.004-.533.012-.973a59.4 59.4 0 0 0 .012-.964c0-.077-.008-.177-.024-.3a2.291 2.291 0 0 1-.025-.267.64.64 0 0 1 .197-.468c.055-.054.156-.082.304-.082.147 0 .295.024.443.07.148.047.242.1.283.16a.32.32 0 0 1 .061.18Zm4.44 3.627c-.011.12-.09.223-.238.308a.971.971 0 0 1-.493.127c-.268 0-.451-.084-.55-.254.044-1.685-.005-2.539-.147-2.56-.137-.023-.471.732-1.002 2.264v.493c-.005.197-.058.336-.16.418a.506.506 0 0 1-.324.124c-.197 0-.407-.107-.632-.32-.066-.055-.101-.471-.107-1.248.006.476.009-.408.009-2.65 0-.05-.006-.117-.017-.202a1.638 1.638 0 0 1-.016-.185c0-.104.027-.194.082-.27.066-.099.17-.148.312-.148a.95.95 0 0 1 .463.135c.162.09.259.177.292.259.022.054.033.11.033.164a.622.622 0 0 1-.066.23.635.635 0 0 0-.066.246v1.133c.345-.734.605-1.218.78-1.453.312-.405.665-.594 1.059-.566.235.016.402.235.5.656.077.317.118.788.123 1.412v1.477c.011.038.05.107.115.205a.311.311 0 0 1 .05.205Zm3.43-3.832c.011.47.036 1.244.074 2.322.022.76.033 1.305.033 1.633 0 .723-.058 1.215-.172 1.478-.115.262-.348.407-.698.435a1.564 1.564 0 0 1-1.157-.345 1.619 1.619 0 0 1-.312-.115c-.093-.055-.153-.148-.18-.279-.05-.257.153-.386.607-.386.115 0 .224.014.328.041.077.017.161.081.254.193s.18.171.263.177c.159.01.238-.214.238-.673a17.6 17.6 0 0 0-.041-.96c-.197.333-.34.55-.427.648a.854.854 0 0 1-.632.279c-.339 0-.613-.235-.82-.706-.192-.432-.288-.957-.288-1.576 0-.634.102-1.17.304-1.608.23-.493.547-.744.952-.755.219-.006.38.038.484.131.104.093.205.189.304.287-.071-.197-.055-.345.05-.443.06-.06.15-.09.27-.09.115 0 .23.03.345.09.114.06.188.134.221.222Zm-.985 2.092a2.256 2.256 0 0 0-.115-.902c-.109-.318-.251-.476-.426-.476-.143 0-.268.158-.378.476a3.065 3.065 0 0 0-.164.902 3.59 3.59 0 0 0 .074.903c.076.318.183.476.32.476.12 0 .26-.154.419-.463.158-.31.248-.615.27-.916Z" clip-rule="evenodd"/>
  <path fill="#0A3586" d="M12.31 36.932a1.368 1.368 0 1 0 2.736 0 1.368 1.368 0 0 0-2.735 0Z"/>
  <path fill="#FFAF40" d="M40.352 34.88H7.523c-.755 0-1.368.613-1.368 1.368v4.104c0 .755.613 1.368 1.368 1.368h32.829c.755 0 1.368-.613 1.368-1.368v-4.104c0-.755-.613-1.368-1.368-1.368Z"/>
  <path stroke="#9F5757" stroke-linecap="square" stroke-width="3.419" d="M11.627 35.564v5.472m3.42-5.472v5.472m15.046-5.472v5.472"/>
  <path stroke="#fff" stroke-linecap="square" stroke-width="3.419" d="M17.098 38.3h10.943"/>
  <path fill="#5B68C0" d="M40.352 28.041H7.523c-.755 0-1.368.613-1.368 1.368v4.104c0 .755.613 1.367 1.368 1.367h32.829c.755 0 1.368-.612 1.368-1.367v-4.104c0-.755-.613-1.368-1.368-1.368Z"/>
  <path stroke="#9ACCFF" stroke-linecap="square" stroke-width="3.419" d="M18.466 28.725v5.471m3.42-5.471v5.471m15.046-5.471v5.471"/>
  <path stroke="#fff" stroke-linecap="square" stroke-width="3.419" d="M23.938 31.46H34.88"/>
</svg>
